<svg width="14" height="14" viewBox="0 0 14 14" fill="none" xmlns="http://www.w3.org/2000/svg">
<path d="M4.1976 7.35101H6.88307C7.12025 7.35101 7.30722 7.16749 7.30722 6.92686V3.44129C7.30722 3.20409 7.12025 3.02148 6.88307 3.02148C6.64684 3.02148 6.46327 3.20409 6.46327 3.44129V6.50706H4.1976C3.957 6.50706 3.77344 6.69062 3.77344 6.92686C3.77344 7.16749 3.957 7.35101 4.1976 7.35101Z" fill="black"/>
<path d="M6.88668 12.1874C9.89777 12.1874 12.3837 9.6981 12.3837 6.69137C12.3837 3.68028 9.89341 1.19531 6.88232 1.19531C3.87655 1.19531 1.39062 3.68028 1.39062 6.69137C1.39062 9.6981 3.88092 12.1874 6.88668 12.1874ZM6.88668 11.1048C4.43756 11.1048 2.47763 9.14046 2.47763 6.69137C2.47763 4.24225 4.4332 2.27796 6.88232 2.27796C9.33141 2.27796 11.301 4.24225 11.301 6.69137C11.301 9.14046 9.33577 11.1048 6.88668 11.1048Z" fill="black"/>
</svg>
