<svg width="17" height="17" viewBox="0 0 17 17" fill="none" xmlns="http://www.w3.org/2000/svg">
<path d="M15.8809 13.8438C16.1621 14.1562 16.1621 14.625 15.8496 14.9062L14.9746 15.7812C14.6934 16.0938 14.2246 16.0938 13.9121 15.7812L10.8184 12.6875C10.6621 12.5312 10.5996 12.3438 10.5996 12.1562V11.625C9.47461 12.5 8.09961 13 6.59961 13C3.00586 13 0.0996094 10.0938 0.0996094 6.5C0.0996094 2.9375 3.00586 0 6.59961 0C10.1621 0 13.0996 2.9375 13.0996 6.5C13.0996 8.03125 12.5684 9.40625 11.7246 10.5H12.2246C12.4121 10.5 12.5996 10.5938 12.7559 10.7188L15.8809 13.8438ZM6.59961 10.5C8.78711 10.5 10.5996 8.71875 10.5996 6.5C10.5996 4.3125 8.78711 2.5 6.59961 2.5C4.38086 2.5 2.59961 4.3125 2.59961 6.5C2.59961 8.71875 4.38086 10.5 6.59961 10.5Z" fill="#212529"/>
</svg>
