<svg width="20" height="20" viewBox="0 0 20 20" fill="none" xmlns="http://www.w3.org/2000/svg">
<path d="M14.7701 7.46381L11.266 3.95972C11.177 3.87057 11.0562 3.82042 10.9302 3.82031H9.36505C8.90289 3.82031 8.45967 4.0039 8.13288 4.33069C7.80609 4.65748 7.6225 5.10071 7.6225 5.56286V6.35492H6.83044C6.36828 6.35492 5.92506 6.53851 5.59827 6.8653C5.27148 7.19209 5.08789 7.63532 5.08789 8.09747V14.434C5.08789 14.8961 5.27148 15.3394 5.59827 15.6662C5.92506 15.9929 6.36828 16.1765 6.83044 16.1765H11.266C11.7282 16.1765 12.1714 15.9929 12.4982 15.6662C12.825 15.3394 13.0085 14.8961 13.0085 14.434V13.6419H13.167C13.6291 13.6419 14.0723 13.4583 14.3991 13.1315C14.7259 12.8048 14.9095 12.3615 14.9095 11.8994V7.78064C14.9045 7.66126 14.8547 7.54814 14.7701 7.46381ZM11.4244 5.44246L13.2874 7.3054H11.4244V5.44246ZM12.0581 14.434C12.0581 14.6441 11.9746 14.8455 11.8261 14.9941C11.6775 15.1426 11.4761 15.2261 11.266 15.2261H6.83044C6.62037 15.2261 6.4189 15.1426 6.27036 14.9941C6.12182 14.8455 6.03837 14.6441 6.03837 14.434V8.09747C6.03837 7.8874 6.12182 7.68593 6.27036 7.53739C6.4189 7.38885 6.62037 7.3054 6.83044 7.3054H7.6225V11.8994C7.6225 12.3615 7.80609 12.8048 8.13288 13.1315C8.45967 13.4583 8.90289 13.6419 9.36505 13.6419H12.0581V14.434ZM13.167 12.6914H9.36505C9.15498 12.6914 8.95351 12.608 8.80497 12.4595C8.65643 12.3109 8.57298 12.1095 8.57298 11.8994V5.56286C8.57298 5.35279 8.65643 5.15132 8.80497 5.00278C8.95351 4.85424 9.15498 4.77079 9.36505 4.77079H10.4739V7.78064C10.4756 7.90617 10.5262 8.0261 10.6149 8.11487C10.7037 8.20364 10.8236 8.25424 10.9492 8.25588H13.959V11.8994C13.959 12.1095 13.8756 12.3109 13.727 12.4595C13.5785 12.608 13.377 12.6914 13.167 12.6914Z" fill="#7F7F7F"/>
</svg>
