<svg width="16" height="13" viewBox="0 0 16 13" fill="none" xmlns="http://www.w3.org/2000/svg">
<path fill-rule="evenodd" clip-rule="evenodd" d="M2.63914 0.227994C2.48596 0.0800452 2.28079 -0.00181983 2.06784 3.07033e-05C1.85488 0.00188123 1.65117 0.0872993 1.50058 0.237888C1.34999 0.388476 1.26458 0.592185 1.26273 0.805141C1.26088 1.0181 1.34274 1.22326 1.49069 1.37644L12.8615 12.7472C13.0147 12.8952 13.2198 12.977 13.4328 12.9752C13.6457 12.9733 13.8494 12.8879 14 12.7373C14.1506 12.5867 14.236 12.383 14.2379 12.1701C14.2397 11.9571 14.1579 11.752 14.0099 11.5988L12.8136 10.4024C14.0786 9.39375 15.014 8.03073 15.5003 6.48761C14.4656 3.19252 11.3873 0.802218 7.75031 0.802218C6.47713 0.800492 5.22153 1.09936 4.08566 1.67452L2.63914 0.227994ZM6.09992 3.68796L7.32959 4.91844C7.60499 4.8453 7.89478 4.84579 8.16994 4.91985C8.44511 4.9939 8.69599 5.13894 8.89748 5.34043C9.09898 5.54193 9.24401 5.79281 9.31807 6.06797C9.39213 6.34313 9.39261 6.63292 9.31947 6.90833L10.5491 8.138C10.9154 7.5175 11.065 6.79283 10.9745 6.078C10.8839 5.36317 10.5582 4.69874 10.0487 4.18923C9.53918 3.67973 8.87475 3.35406 8.15992 3.26346C7.44509 3.17287 6.72042 3.32167 6.09992 3.68796Z" fill="#4B4B4D"/>
<path d="M9.74314 11.9296L7.54695 9.73258C6.75724 9.6831 6.01273 9.34712 5.45315 8.78769C4.89357 8.22826 4.55739 7.48384 4.5077 6.69414L1.5245 3.71094C0.838361 4.52802 0.32029 5.47253 0 6.49028C1.03474 9.78537 4.11379 12.1757 7.75 12.1757C8.43793 12.1757 9.10556 12.0904 9.74314 11.9296Z" fill="#4B4B4D"/>
</svg>
