<svg width="18" height="12" viewBox="0 0 18 12" fill="none" xmlns="http://www.w3.org/2000/svg">
<path fill-rule="evenodd" clip-rule="evenodd" d="M0.792969 5.75C1.79297 8.75 4.59297 11.25 9.79297 11.25C14.993 11.25 16.9596 7.58333 17.293 5.75C16.9596 3.91667 14.893 0.25 9.29297 0.25C3.69297 0.25 1.29297 3.75 0.792969 5.75ZM9.29297 10.25C11.7782 10.25 13.793 8.23528 13.793 5.75C13.793 3.26472 11.7782 1.25 9.29297 1.25C6.80769 1.25 4.79297 3.26472 4.79297 5.75C4.79297 8.23528 6.80769 10.25 9.29297 10.25Z" fill="#4B4B4D"/>
<path fill-rule="evenodd" clip-rule="evenodd" d="M9.29297 8.25C10.6737 8.25 11.793 7.13071 11.793 5.75C11.793 4.36929 10.6737 3.25 9.29297 3.25C8.96446 3.25 8.65074 3.31336 8.36338 3.42854C8.62302 3.60917 8.79297 3.90974 8.79297 4.25C8.79297 4.80228 8.34525 5.25 7.79297 5.25C7.45271 5.25 7.15213 5.08006 6.9715 4.82042C6.85633 5.10777 6.79297 5.42149 6.79297 5.75C6.79297 7.13071 7.91226 8.25 9.29297 8.25Z" fill="#4B4B4D"/>
</svg>
