<svg width="16" height="16" viewBox="0 0 16 16" fill="none" xmlns="http://www.w3.org/2000/svg">
<path d="M9.33366 1.33203H4.00033C3.6467 1.33203 3.30756 1.47251 3.05752 1.72256C2.80747 1.9726 2.66699 2.31174 2.66699 2.66536V13.332C2.66699 13.6857 2.80747 14.0248 3.05752 14.2748C3.30756 14.5249 3.6467 14.6654 4.00033 14.6654H12.0003C12.3539 14.6654 12.6931 14.5249 12.9431 14.2748C13.1932 14.0248 13.3337 13.6857 13.3337 13.332V5.33203L9.33366 1.33203Z" stroke="#909399" stroke-linecap="round" stroke-linejoin="round"/>
<path d="M9.33301 1.33203V5.33203H13.333" stroke="#909399" stroke-linecap="round" stroke-linejoin="round"/>
<path d="M10.6663 8.66797H5.33301" stroke="#909399" stroke-linecap="round" stroke-linejoin="round"/>
<path d="M10.6663 11.332H5.33301" stroke="#909399" stroke-linecap="round" stroke-linejoin="round"/>
<path d="M6.66634 6H5.99967H5.33301" stroke="#909399" stroke-linecap="round" stroke-linejoin="round"/>
</svg>
