<svg width="20" height="21" viewBox="0 0 20 21" fill="none" xmlns="http://www.w3.org/2000/svg">
<path d="M13.5228 3.57401C13.598 3.49445 13.6567 3.40086 13.6958 3.29859C13.7348 3.19631 13.7533 3.08736 13.7502 2.97794C13.7471 2.86852 13.7224 2.76078 13.6777 2.66088C13.633 2.56097 13.569 2.47086 13.4895 2.39568C13.4099 2.32049 13.3163 2.26172 13.214 2.22271C13.1118 2.18369 13.0028 2.16521 12.8934 2.1683C12.784 2.1714 12.6762 2.19601 12.5763 2.24075C12.4764 2.28548 12.3863 2.34945 12.3111 2.42901L5.22779 9.92901C5.08151 10.0837 5 10.2886 5 10.5015C5 10.7144 5.08151 10.9193 5.22779 11.074L12.3111 18.5748C12.3858 18.6561 12.4759 18.7218 12.5762 18.768C12.6764 18.8142 12.7849 18.84 12.8952 18.8439C13.0056 18.8478 13.1156 18.8298 13.2189 18.7908C13.3222 18.7519 13.4167 18.6928 13.497 18.617C13.5772 18.5412 13.6416 18.4502 13.6864 18.3493C13.7312 18.2484 13.7555 18.1396 13.7579 18.0292C13.7604 17.9189 13.7408 17.8091 13.7004 17.7064C13.6601 17.6036 13.5997 17.5099 13.5228 17.4307L6.97945 10.5015L13.5228 3.57401Z" fill="#20284E"/>
</svg>
