<svg width="190" height="35" viewBox="0 0 190 35" fill="none" xmlns="http://www.w3.org/2000/svg">
<path d="M181.062 34.1779C179.282 34.1779 177.702 33.9599 176.321 33.5239C174.977 33.1242 173.905 32.2704 173.105 30.9624C172.342 29.6181 171.961 27.638 171.961 25.022V8.12715C171.961 6.2015 172.342 4.71184 173.105 3.65819C173.905 2.60453 174.995 1.87788 176.375 1.47821C177.756 1.04222 179.337 0.824219 181.117 0.824219C182.933 0.824219 184.496 1.04222 185.804 1.47821C187.148 1.91421 188.184 2.65903 188.91 3.71269C189.637 4.76635 190 6.23783 190 8.12715V14.7761H183.678V7.85465C183.678 6.98266 183.569 6.32866 183.351 5.89267C183.133 5.42034 182.824 5.11151 182.425 4.96618C182.061 4.82085 181.626 4.74818 181.117 4.74818C180.608 4.74818 180.154 4.82085 179.754 4.96618C179.355 5.11151 179.046 5.42034 178.828 5.89267C178.61 6.32866 178.501 6.98266 178.501 7.85465V27.3655C178.501 28.2011 178.61 28.8551 178.828 29.3274C179.046 29.7634 179.355 30.0723 179.754 30.2539C180.154 30.3993 180.608 30.4719 181.117 30.4719C181.626 30.4719 182.061 30.3993 182.425 30.2539C182.824 30.0723 183.133 29.7634 183.351 29.3274C183.569 28.8551 183.678 28.2011 183.678 27.3655V20.989H190V24.9675C190 27.6198 189.637 29.6181 188.91 30.9624C188.184 32.2704 187.148 33.1242 185.804 33.5239C184.496 33.9599 182.915 34.1779 181.062 34.1779Z" fill="#20284E"/>
<path d="M155.558 33.5217L150.271 1.3125H156.811L160.081 26.8182L163.46 1.3125H169.782L164.441 33.5217H155.558Z" fill="#20284E"/>
<path d="M128.668 33.5217V5.78146H123.654V1.3125H140.004V5.78146H134.99V33.5217H128.668Z" fill="#20284E"/>
<path d="M112.512 34.1779C110.731 34.1779 109.151 33.9599 107.77 33.5239C106.426 33.1242 105.354 32.2704 104.555 30.9624C103.792 29.6181 103.41 27.638 103.41 25.022V8.12715C103.41 6.2015 103.792 4.71184 104.555 3.65819C105.354 2.60453 106.444 1.87788 107.825 1.47821C109.205 1.04222 110.786 0.824219 112.566 0.824219C114.383 0.824219 115.945 1.04222 117.253 1.47821C118.597 1.91421 119.633 2.65903 120.359 3.71269C121.086 4.76635 121.449 6.23783 121.449 8.12715V14.7761H115.128V7.85465C115.128 6.98266 115.019 6.32866 114.801 5.89267C114.583 5.42034 114.274 5.11151 113.874 4.96618C113.511 4.82085 113.075 4.74818 112.566 4.74818C112.057 4.74818 111.603 4.82085 111.204 4.96618C110.804 5.11151 110.495 5.42034 110.277 5.89267C110.059 6.32866 109.95 6.98266 109.95 7.85465V27.3655C109.95 28.2011 110.059 28.8551 110.277 29.3274C110.495 29.7634 110.804 30.0723 111.204 30.2539C111.603 30.3993 112.057 30.4719 112.566 30.4719C113.075 30.4719 113.511 30.3993 113.874 30.2539C114.274 30.0723 114.583 29.7634 114.801 29.3274C115.019 28.8551 115.128 28.2011 115.128 27.3655V20.989H121.449V24.9675C121.449 27.6198 121.086 29.6181 120.359 30.9624C119.633 32.2704 118.597 33.1242 117.253 33.5239C115.945 33.9599 114.365 34.1779 112.512 34.1779Z" fill="#20284E"/>
<path d="M80.5977 33.5217L86.3746 1.3125H95.4215L101.089 33.5217H94.0045L93.0235 27.5812H88.3366L87.4101 33.5217H80.5977ZM88.4456 24.4203H92.969L90.7346 6.92594L88.4456 24.4203Z" fill="#20284E"/>
<path d="M69.4319 33.5217V5.78146H64.418V1.3125H80.7678V5.78146H75.7539V33.5217H69.4319Z" fill="#20284E"/>
<path d="M43.918 33.5217V1.3125H49.4224L56.1258 20.8233V1.3125H61.6848V33.5217H56.1803L49.4769 15.3189V33.5217H43.918Z" fill="#20284E"/>
<path d="M30.6 34.1779C28.8197 34.1779 27.2574 33.9599 25.9131 33.5239C24.5687 33.1242 23.5151 32.2704 22.7521 30.9624C22.0254 29.6181 21.6621 27.638 21.6621 25.022V8.12715C21.6621 6.2015 22.0254 4.71184 22.7521 3.65819C23.5151 2.60453 24.5687 1.87788 25.9131 1.47821C27.2937 1.04222 28.8742 0.824219 30.6545 0.824219C32.3985 0.824219 33.9427 1.04222 35.287 1.47821C36.6676 1.91421 37.7394 2.65903 38.5024 3.71269C39.3018 4.76635 39.7014 6.23783 39.7014 8.12715V24.9675C39.7014 27.6198 39.3018 29.6181 38.5024 30.9624C37.7394 32.2704 36.6676 33.1242 35.287 33.5239C33.9427 33.9599 32.3803 34.1779 30.6 34.1779ZM30.6 30.4719C31.145 30.4719 31.6173 30.3811 32.017 30.1994C32.453 30.0178 32.78 29.7089 32.998 29.2729C33.2523 28.8006 33.3795 28.1648 33.3795 27.3655V7.85465C33.3795 7.05532 33.2523 6.43766 32.998 6.00167C32.78 5.52934 32.453 5.20234 32.017 5.02068C31.6173 4.83901 31.145 4.74818 30.6 4.74818C30.055 4.74818 29.5827 4.83901 29.183 5.02068C28.7834 5.20234 28.4564 5.52934 28.202 6.00167C27.984 6.43766 27.875 7.05532 27.875 7.85465V27.3655C27.875 28.1648 27.984 28.8006 28.202 29.2729C28.4564 29.7089 28.7834 30.0178 29.183 30.1994C29.5827 30.3811 30.055 30.4719 30.6 30.4719Z" fill="#20284E"/>
<path d="M9.10141 34.1779C7.32109 34.1779 5.74061 33.9599 4.35996 33.5239C3.01564 33.1242 1.94381 32.2704 1.14449 30.9624C0.381496 29.6181 0 27.638 0 25.022V8.12715C0 6.2015 0.381496 4.71184 1.14449 3.65819C1.94381 2.60453 3.0338 1.87788 4.41446 1.47821C5.79511 1.04222 7.37559 0.824219 9.15591 0.824219C10.9726 0.824219 12.5349 1.04222 13.8429 1.47821C15.1872 1.91421 16.2227 2.65903 16.9493 3.71269C17.676 4.76635 18.0393 6.23783 18.0393 8.12715V14.7761H11.7174V7.85465C11.7174 6.98266 11.6084 6.32866 11.3904 5.89267C11.1724 5.42034 10.8636 5.11151 10.4639 4.96618C10.1006 4.82085 9.66457 4.74818 9.15591 4.74818C8.64725 4.74818 8.19308 4.82085 7.79342 4.96618C7.39376 5.11151 7.08493 5.42034 6.86693 5.89267C6.64893 6.32866 6.53993 6.98266 6.53993 7.85465V27.3655C6.53993 28.2011 6.64893 28.8551 6.86693 29.3274C7.08493 29.7634 7.39376 30.0723 7.79342 30.2539C8.19308 30.3993 8.64725 30.4719 9.15591 30.4719C9.66457 30.4719 10.1006 30.3993 10.4639 30.2539C10.8636 30.0723 11.1724 29.7634 11.3904 29.3274C11.6084 28.8551 11.7174 28.2011 11.7174 27.3655V20.989H18.0393V24.9675C18.0393 27.6198 17.676 29.6181 16.9493 30.9624C16.2227 32.2704 15.1872 33.1242 13.8429 33.5239C12.5349 33.9599 10.9544 34.1779 9.10141 34.1779Z" fill="#20284E"/>
</svg>
