<svg width="23" height="9" viewBox="0 0 23 9" fill="none" xmlns="http://www.w3.org/2000/svg">
<g clip-path="url(#clip0_355_21113)">
<path d="M0.9375 0.799805V8.1598H2.0375V4.68981C2.0375 3.88981 1.9575 3.0398 1.8875 2.2798H1.9375L2.7075 3.8198L5.1475 8.1598H6.3375V0.799805H5.2375V4.2298C5.2375 5.02981 5.3175 5.9198 5.3875 6.6798H5.3375L4.5675 5.1198L2.1275 0.799805H0.9375ZM8.2815 0.799805V8.1598H12.7415V7.1798H9.4415V4.7998H12.1415V3.8198H9.4415V1.7698H12.6315V0.799805H8.2815ZM13.5275 0.799805L15.0375 8.1598H16.4375L17.4075 4.0698C17.5275 3.4698 17.6375 2.9398 17.7475 2.3798H17.7975C17.9075 2.9398 18.0075 3.4698 18.1375 4.0698L19.1275 8.1598H20.5575L22.0075 0.799805H20.8975L20.1975 4.6298C20.0775 5.3998 19.9475 6.1898 19.8275 6.9898H19.7775C19.6075 6.1898 19.4475 5.3998 19.2775 4.6298L18.3175 0.799805H17.2975L16.3475 4.6298C16.1775 5.4298 16.0075 6.1898 15.8475 6.9898H15.8075L15.4175 4.6298L14.7275 0.799805H13.5275Z" fill="#FF3334"/>
</g>
<defs>
<clipPath id="clip0_355_21113">
<rect width="22" height="8" fill="white" transform="translate(0.605469 0.160156)"/>
</clipPath>
</defs>
</svg>
