<svg width="30" height="30" viewBox="0 0 30 30" fill="none" xmlns="http://www.w3.org/2000/svg">
<rect width="30" height="30" rx="3" fill="#CC2300"/>
<path d="M11.4772 21.9279C11.402 22.0075 11.3433 22.1011 11.3042 22.2034C11.2652 22.3056 11.2467 22.4146 11.2498 22.524C11.2529 22.6334 11.2776 22.7412 11.3223 22.8411C11.367 22.941 11.431 23.0311 11.5105 23.1063C11.5901 23.1815 11.6837 23.2402 11.786 23.2792C11.8882 23.3183 11.9972 23.3367 12.1066 23.3337C12.216 23.3306 12.3238 23.3059 12.4237 23.2612C12.5236 23.2165 12.6137 23.1525 12.6889 23.0729L19.7722 15.5729C19.9185 15.4182 20 15.2134 20 15.0004C20 14.7875 19.9185 14.5827 19.7722 14.4279L12.6889 6.92711C12.6142 6.84581 12.5241 6.78016 12.4238 6.73397C12.3236 6.68778 12.2151 6.66198 12.1048 6.65806C11.9944 6.65414 11.8844 6.67218 11.7811 6.71114C11.6778 6.75009 11.5833 6.80918 11.503 6.88498C11.4228 6.96077 11.3584 7.05176 11.3136 7.15266C11.2688 7.25356 11.2445 7.36235 11.2421 7.47272C11.2396 7.5831 11.2592 7.69285 11.2996 7.7956C11.3399 7.89835 11.4003 7.99206 11.4772 8.07127L18.0205 15.0004L11.4772 21.9279Z" fill="white"/>
</svg>
