<svg width="14" height="14" viewBox="0 0 14 14" fill="none" xmlns="http://www.w3.org/2000/svg">
<path d="M3.15112 11.7624H9.78942C10.7052 11.7624 11.1476 11.4744 11.1476 10.8498C11.1476 9.39357 9.32608 7.43829 6.47199 7.43829C3.61445 7.43829 1.79297 9.39357 1.79297 10.8498C1.79297 11.4744 2.23533 11.7624 3.15112 11.7624ZM2.97767 10.8431C2.85274 10.8431 2.80187 10.8049 2.80187 10.7056C2.80187 9.89051 4.1198 8.35761 6.47199 8.35761C8.81979 8.35761 10.1387 9.89051 10.1387 10.7056C10.1387 10.8049 10.0922 10.8431 9.96626 10.8431H2.97767ZM6.47199 6.81781C7.7584 6.81781 8.80022 5.6812 8.80022 4.28931C8.80022 2.91572 7.75894 1.8252 6.47199 1.8252C5.19469 1.8252 4.1428 2.93317 4.14471 4.29899C4.15003 5.68556 5.1865 6.81781 6.47199 6.81781ZM6.47199 5.8985C5.73634 5.8985 5.10956 5.20532 5.1086 4.29708C5.10764 3.41438 5.73049 2.7445 6.47199 2.7445C7.21974 2.7445 7.83631 3.40565 7.83631 4.28931C7.83631 5.19659 7.21388 5.8985 6.47199 5.8985Z" fill="black"/>
</svg>
