<svg width="108" height="108" viewBox="0 0 108 108" fill="none" xmlns="http://www.w3.org/2000/svg">
<g filter="url(#filter0_d_643_53683)">
<circle cx="54" cy="50" r="47" fill="white"/>
</g>
<path d="M57 31.5C57 33.1569 55.6569 34.5 54 34.5C52.3431 34.5 51 33.1569 51 31.5C51 29.8431 52.3431 28.5 54 28.5C55.6569 28.5 57 29.8431 57 31.5Z" stroke="#28303F" stroke-width="1.5"/>
<circle cx="54" cy="25" r="1" fill="#28303F"/>
<path d="M63 33.5V29.5C63 26.7386 60.7614 24.5 58 24.5H57.874C57.4299 22.7748 55.8638 21.5 54 21.5C52.1362 21.5 50.5701 22.7748 50.126 24.5H50C47.2386 24.5 45 26.7386 45 29.5V33.5C45 36.2614 47.2386 38.5 50 38.5H58C60.7614 38.5 63 36.2614 63 33.5Z" stroke="#28303F" stroke-width="1.5" stroke-linejoin="round"/>
<path d="M46.7129 52.024H47.5289V53.968C47.5289 56.368 46.2329 58.708 44.5169 59.62L43.9049 58.828C45.4769 58.036 46.7129 55.948 46.7129 53.968V52.024ZM46.8929 52.024H47.6969V53.968C47.6969 55.876 48.9089 57.856 50.4449 58.624L49.8329 59.416C48.1529 58.516 46.8929 56.296 46.8929 53.968V52.024ZM51.3929 51.088H52.4009V61.936H51.3929V51.088ZM52.1609 55.48H54.1769V56.32H52.1609V55.48ZM57.98 52.276H58.808V53.38C58.808 55.372 57.584 57.04 55.76 57.7L55.244 56.908C56.876 56.332 57.98 54.928 57.98 53.38V52.276ZM58.172 52.276H59V53.38C59 54.844 60.128 56.164 61.736 56.704L61.22 57.484C59.42 56.872 58.172 55.288 58.172 53.38V52.276ZM55.508 51.988H61.448V52.792H55.508V51.988ZM62.984 51.1H63.992V59.032H62.984V51.1ZM57.02 60.88H64.316V61.696H57.02V60.88ZM57.02 58.288H58.004V61.24H57.02V58.288ZM37.4019 65.472H38.2779V66.072C38.2779 68.148 36.1659 69.636 33.9099 70.02L33.5139 69.216C35.4939 68.916 37.4019 67.62 37.4019 66.072V65.472ZM37.5819 65.472H38.4459V66.072C38.4459 67.584 40.3779 68.916 42.3339 69.216L41.9379 70.02C39.7059 69.636 37.5819 68.124 37.5819 66.072V65.472ZM37.4019 71.808H38.3859V75.936H37.4019V71.808ZM33.0219 71.196H42.8259V72.024H33.0219V71.196ZM49.8449 67.896H52.2929V68.724H49.8449V67.896ZM51.9809 65.088H52.9769V71.556H51.9809V65.088ZM49.4129 71.88C51.6449 71.88 53.0249 72.636 53.0249 73.908C53.0249 75.192 51.6449 75.924 49.4129 75.924C47.1689 75.924 45.7889 75.192 45.7889 73.908C45.7889 72.636 47.1689 71.88 49.4129 71.88ZM49.4129 72.66C47.7809 72.66 46.7849 73.116 46.7849 73.908C46.7849 74.688 47.7809 75.144 49.4129 75.144C51.0449 75.144 52.0409 74.688 52.0409 73.908C52.0409 73.116 51.0449 72.66 49.4129 72.66ZM46.8209 66.18H47.6369V67.056C47.6369 69.06 46.4129 70.776 44.6129 71.448L44.0969 70.656C45.7049 70.068 46.8209 68.616 46.8209 67.056V66.18ZM47.0129 66.18H47.8169V67.056C47.8169 68.46 48.8729 69.804 50.4449 70.356L49.9409 71.148C48.1769 70.512 47.0129 68.88 47.0129 67.056V66.18ZM44.3969 65.88H50.1929V66.696H44.3969V65.88ZM62.444 65.088H63.44V75.936H62.444V65.088ZM63.2 69.54H65.216V70.38H63.2V69.54ZM55.04 66.816H61.436V67.632H55.04V66.816ZM58.28 68.532C59.816 68.532 60.92 69.564 60.92 71.028C60.92 72.492 59.816 73.524 58.28 73.524C56.756 73.524 55.64 72.492 55.64 71.028C55.64 69.564 56.756 68.532 58.28 68.532ZM58.28 69.36C57.296 69.36 56.588 70.044 56.588 71.028C56.588 72 57.296 72.696 58.28 72.696C59.264 72.696 59.972 72 59.972 71.028C59.972 70.044 59.264 69.36 58.28 69.36ZM57.764 65.22H58.76V67.188H57.764V65.22ZM74.0351 65.088H75.0311V75.936H74.0351V65.088ZM70.8551 66.252H71.8391C71.8391 69.396 70.4231 72.144 66.7991 73.92L66.2711 73.116C69.4031 71.604 70.8551 69.3 70.8551 66.42V66.252ZM66.7631 66.252H71.2871V67.068H66.7631V66.252Z" fill="black"/>
<defs>
<filter id="filter0_d_643_53683" x="0" y="0" width="108" height="108" filterUnits="userSpaceOnUse" color-interpolation-filters="sRGB">
<feFlood flood-opacity="0" result="BackgroundImageFix"/>
<feColorMatrix in="SourceAlpha" type="matrix" values="0 0 0 0 0 0 0 0 0 0 0 0 0 0 0 0 0 0 127 0" result="hardAlpha"/>
<feOffset dy="4"/>
<feGaussianBlur stdDeviation="3.5"/>
<feComposite in2="hardAlpha" operator="out"/>
<feColorMatrix type="matrix" values="0 0 0 0 0.75 0 0 0 0 0.75 0 0 0 0 0.75 0 0 0 0.25 0"/>
<feBlend mode="normal" in2="BackgroundImageFix" result="effect1_dropShadow_643_53683"/>
<feBlend mode="normal" in="SourceGraphic" in2="effect1_dropShadow_643_53683" result="shape"/>
</filter>
</defs>
</svg>
