<svg width="30" height="30" viewBox="0 0 30 30" fill="none" xmlns="http://www.w3.org/2000/svg">
<rect width="30" height="30" rx="3" fill="#CC2300"/>
<path d="M18.5228 8.07206C18.598 7.9925 18.6567 7.89891 18.6958 7.79664C18.7348 7.69436 18.7533 7.5854 18.7502 7.47599C18.7471 7.36657 18.7224 7.25883 18.6777 7.15893C18.633 7.05902 18.569 6.9689 18.4895 6.89372C18.4099 6.81854 18.3163 6.75977 18.214 6.72075C18.1118 6.68174 18.0028 6.66325 17.8934 6.66635C17.784 6.66944 17.6762 6.69406 17.5763 6.73879C17.4764 6.78353 17.3863 6.8475 17.3111 6.92706L10.2278 14.4271C10.0815 14.5818 10 14.7866 10 14.9996C10 15.2125 10.0815 15.4173 10.2278 15.5721L17.3111 23.0729C17.3858 23.1542 17.4759 23.2198 17.5762 23.266C17.6764 23.3122 17.7849 23.338 17.8952 23.3419C18.0056 23.3459 18.1156 23.3278 18.2189 23.2889C18.3222 23.2499 18.4167 23.1908 18.497 23.115C18.5772 23.0392 18.6416 22.9482 18.6864 22.8473C18.7312 22.7464 18.7555 22.6376 18.7579 22.5273C18.7604 22.4169 18.7408 22.3072 18.7004 22.2044C18.6601 22.1016 18.5997 22.0079 18.5228 21.9287L11.9795 14.9996L18.5228 8.07206Z" fill="white"/>
</svg>
