<svg width="17" height="17" viewBox="0 0 17 17" fill="none" xmlns="http://www.w3.org/2000/svg">
<path d="M16.2812 14.3438C16.5625 14.6562 16.5625 15.125 16.25 15.4062L15.375 16.2812C15.0938 16.5938 14.625 16.5938 14.3125 16.2812L11.2188 13.1875C11.0625 13.0312 11 12.8438 11 12.6562V12.125C9.875 13 8.5 13.5 7 13.5C3.40625 13.5 0.5 10.5938 0.5 7C0.5 3.4375 3.40625 0.5 7 0.5C10.5625 0.5 13.5 3.4375 13.5 7C13.5 8.53125 12.9688 9.90625 12.125 11H12.625C12.8125 11 13 11.0938 13.1562 11.2188L16.2812 14.3438ZM7 11C9.1875 11 11 9.21875 11 7C11 4.8125 9.1875 3 7 3C4.78125 3 3 4.8125 3 7C3 9.21875 4.78125 11 7 11Z" fill="white"/>
</svg>
