<svg width="48" height="49" viewBox="0 0 48 49" fill="none" xmlns="http://www.w3.org/2000/svg">
<path d="M40.5003 19.7002C42.0139 20.5718 43.2412 21.8651 44.0325 23.4222C44.8239 24.9794 45.1449 26.7332 44.9567 28.4697C44.7684 30.2062 44.0789 31.8504 42.9722 33.2017C41.8655 34.5531 40.3896 35.5532 38.7243 36.0802C38.1357 38.7511 36.6526 41.141 34.5205 42.8541C32.3885 44.5671 29.7353 45.5007 27.0003 45.5002H22.5003C22.1024 45.5002 21.7209 45.3422 21.4396 45.0609C21.1583 44.7795 21.0003 44.398 21.0003 44.0002C21.0003 43.6024 21.1583 43.2208 21.4396 42.9395C21.7209 42.6582 22.1024 42.5002 22.5003 42.5002H27.0003C28.8621 42.5007 30.6783 41.924 32.1988 40.8495C33.7193 39.7749 34.8692 38.2554 35.4903 36.5002H34.5003C34.1024 36.5002 33.7209 36.3422 33.4396 36.0609C33.1583 35.7796 33.0003 35.398 33.0003 35.0002V20.0002C33.0003 19.6024 33.1583 19.2208 33.4396 18.9395C33.7209 18.6582 34.1024 18.5002 34.5003 18.5002H36.0003C36.4863 18.5002 36.9633 18.5392 37.4313 18.6142C37.0936 15.2869 35.5328 12.2033 33.0514 9.96106C30.57 7.71877 27.3447 6.47737 24.0003 6.47737C20.6558 6.47737 17.4305 7.71877 14.9491 9.96106C12.4677 12.2033 10.907 15.2869 10.5693 18.6142C11.0425 18.5384 11.521 18.5003 12.0003 18.5002H13.5003C13.8981 18.5002 14.2796 18.6582 14.5609 18.9395C14.8422 19.2208 15.0003 19.6024 15.0003 20.0002V35.0002C15.0003 35.398 14.8422 35.7796 14.5609 36.0609C14.2796 36.3422 13.8981 36.5002 13.5003 36.5002H12.0003C10.0172 36.5024 8.08894 35.8496 6.51505 34.6432C4.94117 33.4368 3.80979 31.7444 3.29671 29.8288C2.78362 27.9133 2.91755 25.8819 3.67768 24.0503C4.43782 22.2188 5.78161 20.6895 7.50026 19.7002C7.50026 15.3241 9.23865 11.1273 12.333 8.03293C15.4273 4.93858 19.6242 3.2002 24.0003 3.2002C28.3763 3.2002 32.5732 4.93858 35.6675 8.03293C38.7619 11.1273 40.5003 15.3241 40.5003 19.7002ZM12.0003 21.5002C10.409 21.5002 8.88284 22.1323 7.75762 23.2576C6.6324 24.3828 6.00026 25.9089 6.00026 27.5002C6.00026 29.0915 6.6324 30.6176 7.75762 31.7428C8.88284 32.8681 10.409 33.5002 12.0003 33.5002V21.5002ZM42.0003 27.5002C42.0003 25.9089 41.3681 24.3828 40.2429 23.2576C39.1177 22.1323 37.5916 21.5002 36.0003 21.5002V33.5002C37.5916 33.5002 39.1177 32.8681 40.2429 31.7428C41.3681 30.6176 42.0003 29.0915 42.0003 27.5002Z" fill="#20284E"/>
</svg>
