<svg width="64" height="64" viewBox="0 0 64 64" fill="none" xmlns="http://www.w3.org/2000/svg">
<path d="M42.6673 42.6667L32.0007 32L21.334 42.6667" stroke="#606266" stroke-width="2" stroke-linecap="round" stroke-linejoin="round"/>
<path d="M32 32V56" stroke="#606266" stroke-width="2" stroke-linecap="round" stroke-linejoin="round"/>
<path d="M54.3732 49.0413C56.9741 47.6233 59.0288 45.3796 60.2129 42.6643C61.397 39.9489 61.6431 36.9165 60.9124 34.0458C60.1818 31.175 58.5159 28.6293 56.1777 26.8104C53.8395 24.9916 50.9622 24.0032 47.9999 24.0013H44.6399C43.8327 20.8792 42.3283 17.9808 40.2398 15.5239C38.1512 13.067 35.5328 11.1155 32.5815 9.81621C29.6302 8.5169 26.4227 7.90355 23.2002 8.02228C19.9777 8.14101 16.8241 8.98873 13.9764 10.5017C11.1287 12.0147 8.66099 14.1535 6.75889 16.7575C4.85678 19.3614 3.56973 22.3627 2.99451 25.5356C2.41928 28.7086 2.57084 31.9707 3.4378 35.0766C4.30475 38.1826 5.86454 41.0516 7.9999 43.4679" stroke="#606266" stroke-width="2" stroke-linecap="round" stroke-linejoin="round"/>
<path d="M42.6673 42.6667L32.0007 32L21.334 42.6667" stroke="#606266" stroke-width="2" stroke-linecap="round" stroke-linejoin="round"/>
</svg>
